<mxfile host="65bd71144e" scale="1" border="10">
    <diagram id="-rriOPSDnHkLpZKLwRpb" name="Page-1">
        <mxGraphModel dx="3479" dy="1742" grid="1" gridSize="10" guides="1" tooltips="1" connect="1" arrows="1" fold="1" page="1" pageScale="1" pageWidth="850" pageHeight="1100" background="#FFFFFF" math="0" shadow="0">
            <root>
                <mxCell id="0"/>
                <mxCell id="1" parent="0"/>
                <mxCell id="408" value="INTERAZIONE" style="rounded=0;whiteSpace=wrap;html=1;" parent="1" vertex="1">
                    <mxGeometry x="-2379.84" y="-919.96" width="120" height="40" as="geometry"/>
                </mxCell>
                <mxCell id="409" style="edgeStyle=elbowEdgeStyle;html=1;exitX=0.5;exitY=1;exitDx=0;exitDy=0;endArrow=none;endFill=0;elbow=vertical;rounded=0;jumpStyle=arc;" parent="1" target="413" edge="1">
                    <mxGeometry relative="1" as="geometry">
                        <mxPoint x="-2320.4500000000003" y="-879.96" as="sourcePoint"/>
                        <mxPoint x="-2379.84" y="-800.57" as="targetPoint"/>
                    </mxGeometry>
                </mxCell>
                <mxCell id="410" style="edgeStyle=elbowEdgeStyle;elbow=vertical;html=1;exitX=0.5;exitY=1;exitDx=0;exitDy=0;endArrow=none;endFill=0;rounded=0;jumpStyle=arc;" parent="1" edge="1">
                    <mxGeometry relative="1" as="geometry">
                        <mxPoint x="-2320.4500000000003" y="-879.96" as="sourcePoint"/>
                        <mxPoint x="-2259.84" y="-799.5700000000002" as="targetPoint"/>
                    </mxGeometry>
                </mxCell>
                <mxCell id="411" value="" style="shape=singleArrow;whiteSpace=wrap;html=1;arrowWidth=0.4;arrowSize=0.4;rotation=-90;fillColor=#000000;" parent="1" vertex="1">
                    <mxGeometry x="-2340.14" y="-874.0400000000001" width="38.76" height="29.17" as="geometry"/>
                </mxCell>
                <mxCell id="412" value="(e)" style="text;html=1;align=center;verticalAlign=middle;resizable=0;points=[];autosize=1;strokeColor=none;fillColor=none;" parent="1" vertex="1">
                    <mxGeometry x="-2322.45" y="-866.9600000000002" width="40" height="30" as="geometry"/>
                </mxCell>
                <mxCell id="413" value="COMMENTO" style="rounded=0;whiteSpace=wrap;html=1;" parent="1" vertex="1">
                    <mxGeometry x="-2420" y="-799.57" width="82" height="40" as="geometry"/>
                </mxCell>
                <mxCell id="414" value="REAZIONE" style="rounded=0;whiteSpace=wrap;html=1;" parent="1" vertex="1">
                    <mxGeometry x="-2299.8500000000004" y="-799.57" width="80" height="40" as="geometry"/>
                </mxCell>
                <mxCell id="415" value="codice" style="edgeStyle=none;jumpStyle=arc;html=1;startArrow=none;startFill=0;endArrow=oval;endFill=1;" parent="1" source="416" edge="1">
                    <mxGeometry x="1" y="30" relative="1" as="geometry">
                        <mxPoint x="-2319.84" y="-579.74" as="targetPoint"/>
                        <mxPoint x="-2279.84" y="-619.74" as="sourcePoint"/>
                        <mxPoint as="offset"/>
                    </mxGeometry>
                </mxCell>
                <mxCell id="416" value="EMOJI" style="whiteSpace=wrap;html=1;rounded=0;" parent="1" vertex="1">
                    <mxGeometry x="-2359.84" y="-639.74" width="80" height="40" as="geometry"/>
                </mxCell>
                <mxCell id="418" value="&lt;span style=&quot;color: rgb(0, 0, 0); font-family: Helvetica; font-size: 11px; font-style: normal; font-variant-ligatures: normal; font-variant-caps: normal; font-weight: 400; letter-spacing: normal; orphans: 2; text-align: center; text-indent: 0px; text-transform: none; widows: 2; word-spacing: 0px; -webkit-text-stroke-width: 0px; background-color: rgb(255, 255, 255); text-decoration-thickness: initial; text-decoration-style: initial; text-decoration-color: initial; float: none; display: inline !important;&quot;&gt;(1, 1)&lt;/span&gt;" style="edgeLabel;html=1;align=center;verticalAlign=middle;resizable=0;points=[];fontSize=11;fontFamily=Helvetica;fontColor=default;" parent="1" connectable="0" vertex="1">
                    <mxGeometry x="-2210.0014869339016" y="-910.3862627005637" as="geometry">
                        <mxPoint x="-6" y="-1" as="offset"/>
                    </mxGeometry>
                </mxCell>
                <mxCell id="419" style="edgeStyle=none;html=1;exitX=0;exitY=0.5;exitDx=0;exitDy=0;endArrow=none;endFill=0;" parent="1" source="420" target="408" edge="1">
                    <mxGeometry relative="1" as="geometry"/>
                </mxCell>
                <mxCell id="420" value="invio" style="rhombus;whiteSpace=wrap;html=1;" parent="1" vertex="1">
                    <mxGeometry x="-2210" y="-919.9199999999998" width="80" height="40" as="geometry"/>
                </mxCell>
                <mxCell id="423" value="(0, N)" style="edgeStyle=none;jumpStyle=arc;html=1;startArrow=none;startFill=0;endArrow=none;endFill=0;" parent="1" source="426" target="416" edge="1">
                    <mxGeometry x="-0.7492" y="20" relative="1" as="geometry">
                        <mxPoint as="offset"/>
                        <mxPoint x="-2342.45" y="-379.63" as="targetPoint"/>
                        <Array as="points">
                            <mxPoint x="-2380" y="-620"/>
                        </Array>
                    </mxGeometry>
                </mxCell>
                <mxCell id="424" style="edgeStyle=none;html=1;exitX=0.5;exitY=0;exitDx=0;exitDy=0;endArrow=none;endFill=0;" parent="1" source="426" target="413" edge="1">
                    <mxGeometry relative="1" as="geometry"/>
                </mxCell>
                <mxCell id="425" value="(0, N)" style="edgeLabel;html=1;align=center;verticalAlign=middle;resizable=0;points=[];" parent="424" vertex="1" connectable="0">
                    <mxGeometry x="-0.3714" y="3" relative="1" as="geometry">
                        <mxPoint x="23" y="2" as="offset"/>
                    </mxGeometry>
                </mxCell>
                <mxCell id="426" value="&lt;font style=&quot;font-size: 11px;&quot;&gt;presenza&lt;sub&gt;(C-E)&lt;/sub&gt;&lt;/font&gt;" style="rhombus;whiteSpace=wrap;html=1;rounded=0;" parent="1" vertex="1">
                    <mxGeometry x="-2430" y="-720" width="100" height="40" as="geometry"/>
                </mxCell>
                <mxCell id="427" value="(1, 1)" style="edgeStyle=none;jumpStyle=arc;html=1;startArrow=none;startFill=0;endArrow=none;endFill=0;" parent="1" source="414" target="429" edge="1">
                    <mxGeometry x="0.5052" y="20" relative="1" as="geometry">
                        <mxPoint as="offset"/>
                        <mxPoint x="-2261.38" y="-760.2099999999999" as="sourcePoint"/>
                    </mxGeometry>
                </mxCell>
                <mxCell id="428" value="(0, N)" style="edgeStyle=none;jumpStyle=arc;html=1;startArrow=none;startFill=0;endArrow=none;endFill=0;" parent="1" source="429" target="416" edge="1">
                    <mxGeometry x="-0.5138" y="20" relative="1" as="geometry">
                        <mxPoint as="offset"/>
                        <mxPoint x="-2261.290078957263" y="-639.7900000000001" as="targetPoint"/>
                        <Array as="points">
                            <mxPoint x="-2260" y="-620"/>
                        </Array>
                    </mxGeometry>
                </mxCell>
                <mxCell id="429" value="&lt;font style=&quot;font-size: 11px;&quot;&gt;presenza&lt;sub&gt;(R-E)&lt;/sub&gt;&lt;/font&gt;" style="rhombus;whiteSpace=wrap;html=1;rounded=0;" parent="1" vertex="1">
                    <mxGeometry x="-2310" y="-720" width="100" height="40" as="geometry"/>
                </mxCell>
                <mxCell id="430" value="" style="endArrow=oval;html=1;fillStyle=auto;strokeWidth=1;startSize=6;endSize=6;fillColor=#000000;startArrow=none;startFill=0;endFill=0;" parent="1" source="413" edge="1">
                    <mxGeometry width="50" height="50" relative="1" as="geometry">
                        <mxPoint x="-2011.3109054325955" y="-580.4200000000001" as="sourcePoint"/>
                        <mxPoint x="-2420" y="-820" as="targetPoint"/>
                    </mxGeometry>
                </mxCell>
                <mxCell id="431" value="messaggio" style="edgeLabel;html=1;align=center;verticalAlign=middle;resizable=0;points=[];" parent="430" connectable="0" vertex="1">
                    <mxGeometry x="0.4791" y="1" relative="1" as="geometry">
                        <mxPoint x="-45" y="-6" as="offset"/>
                    </mxGeometry>
                </mxCell>
                <mxCell id="432" value="" style="endArrow=none;html=1;strokeColor=#000000;strokeWidth=1;fontColor=#FF0000;" parent="1" edge="1">
                    <mxGeometry width="50" height="50" relative="1" as="geometry">
                        <mxPoint x="-2370" y="-930" as="sourcePoint"/>
                        <mxPoint x="-2246" y="-890" as="targetPoint"/>
                        <Array as="points">
                            <mxPoint x="-2246" y="-930"/>
                        </Array>
                    </mxGeometry>
                </mxCell>
                <mxCell id="436" style="edgeStyle=none;html=1;exitX=0.5;exitY=1;exitDx=0;exitDy=0;endArrow=none;endFill=0;" parent="1" source="437" edge="1">
                    <mxGeometry relative="1" as="geometry">
                        <mxPoint x="-2319.8627660785432" y="-919.96" as="targetPoint"/>
                        <Array as="points"/>
                    </mxGeometry>
                </mxCell>
                <mxCell id="437" value="gestione&lt;sub&gt;(I-R)&lt;/sub&gt;" style="rhombus;whiteSpace=wrap;html=1;" parent="1" vertex="1">
                    <mxGeometry x="-2369.84" y="-1016.36" width="100" height="40" as="geometry"/>
                </mxCell>
                <mxCell id="439" value="" style="shape=waypoint;fillStyle=solid;size=6;pointerEvents=1;points=[];fillColor=none;resizable=0;rotatable=0;perimeter=centerPerimeter;snapToPoint=1;strokeColor=#000000;fontColor=#FF0000;" parent="1" vertex="1">
                    <mxGeometry x="-2379.84" y="-939.92" width="20" height="20" as="geometry"/>
                </mxCell>
                <mxCell id="440" value="&lt;span style=&quot;font-size: 11px; background-color: rgb(255, 255, 255);&quot;&gt;(1, 1)&lt;/span&gt;" style="text;html=1;align=center;verticalAlign=middle;resizable=0;points=[];autosize=1;strokeColor=none;fillColor=none;" parent="1" vertex="1">
                    <mxGeometry x="-2327.4500000000003" y="-980" width="50" height="30" as="geometry"/>
                </mxCell>
                <mxCell id="441" value="" style="endArrow=oval;html=1;fillStyle=auto;strokeWidth=1;startSize=6;endSize=6;fillColor=#000000;startArrow=none;startFill=0;endFill=0;exitX=0.38;exitY=0.002;exitDx=0;exitDy=0;exitPerimeter=0;" edge="1" parent="1">
                    <mxGeometry width="50" height="50" relative="1" as="geometry">
                        <mxPoint x="-2338.0000000000005" y="-919.96" as="sourcePoint"/>
                        <mxPoint x="-2363.76" y="-950.08" as="targetPoint"/>
                    </mxGeometry>
                </mxCell>
                <mxCell id="442" value="&lt;font style=&quot;font-size: 11px;&quot;&gt;timestamp&lt;/font&gt;" style="text;html=1;align=center;verticalAlign=middle;resizable=0;points=[];autosize=1;strokeColor=none;fillColor=none;" vertex="1" parent="1">
                    <mxGeometry x="-2411.76" y="-976.3600000000001" width="70" height="30" as="geometry"/>
                </mxCell>
            </root>
        </mxGraphModel>
    </diagram>
</mxfile>